<svg width="13" height="18" viewBox="0 0 13 18" fill="none" xmlns="http://www.w3.org/2000/svg">
<path d="M6.31844 4.49664C5.85855 4.49664 5.40898 4.63302 5.02659 4.88852C4.6442 5.14403 4.34616 5.50719 4.17017 5.93208C3.99417 6.35697 3.94812 6.8245 4.03784 7.27556C4.12757 7.72662 4.34903 8.14095 4.67422 8.46614C4.99942 8.79134 5.41374 9.0128 5.8648 9.10252C6.31586 9.19224 6.7834 9.14619 7.20829 8.9702C7.63318 8.7942 7.99634 8.49617 8.25184 8.11378C8.50735 7.73139 8.64372 7.28182 8.64372 6.82192C8.64302 6.20543 8.39781 5.6144 7.96189 5.17848C7.52597 4.74255 6.93493 4.49735 6.31844 4.49664ZM6.31844 7.98456C6.0885 7.98456 5.86371 7.91637 5.67252 7.78862C5.48132 7.66087 5.3323 7.47929 5.2443 7.26684C5.15631 7.0544 5.13328 6.82063 5.17814 6.5951C5.223 6.36957 5.33374 6.16241 5.49633 5.99981C5.65893 5.83721 5.86609 5.72648 6.09162 5.68162C6.31715 5.63676 6.55092 5.65979 6.76337 5.74778C6.97581 5.83578 7.15739 5.9848 7.28514 6.17599C7.4129 6.36719 7.48108 6.59197 7.48108 6.82192C7.48073 7.13016 7.35812 7.42568 7.14016 7.64364C6.9222 7.8616 6.62669 7.9842 6.31844 7.98456Z" fill="#6B729D"/>
<path d="M10.7867 2.35024C9.68191 1.24574 8.20718 0.589632 6.6471 0.508528C5.08702 0.427424 3.5522 0.927079 2.33885 1.91106C1.12551 2.89504 0.319653 4.29359 0.0768248 5.83679C-0.166004 7.37998 0.171406 8.95843 1.02393 10.2675L5.41678 17.0113C5.51454 17.1613 5.6482 17.2846 5.80566 17.37C5.96311 17.4553 6.13937 17.5 6.31846 17.5C6.49756 17.5 6.67382 17.4553 6.83127 17.37C6.98873 17.2846 7.12239 17.1613 7.22015 17.0113L11.6131 10.2675C12.4042 9.05314 12.7538 7.6038 12.6033 6.16236C12.4528 4.72093 11.8115 3.37502 10.7867 2.35024ZM10.639 9.63286L6.31848 16.2654L1.99793 9.63286C0.675432 7.60264 0.95908 4.8857 2.67237 3.17233C3.15118 2.69351 3.71962 2.31369 4.34522 2.05455C4.97082 1.79541 5.64134 1.66203 6.31848 1.66203C6.99563 1.66203 7.66615 1.79541 8.29175 2.05455C8.91735 2.31369 9.48578 2.69351 9.96459 3.17233C11.6779 4.8857 11.9615 7.60264 10.639 9.63286Z" fill="#6B729D"/>
</svg>
