<svg width="16" height="20" viewBox="0 0 16 20" fill="none" xmlns="http://www.w3.org/2000/svg">
<path fill-rule="evenodd" clip-rule="evenodd" d="M15.7472 0.278593C15.8245 0.333541 15.8882 0.41027 15.9325 0.501507C15.9767 0.592743 16 0.695463 16 0.799926V19.1999C16 19.3626 15.9438 19.5186 15.8438 19.6336C15.7438 19.7486 15.6081 19.8133 15.4667 19.8133H12.2667C12.1252 19.8133 11.9896 19.7486 11.8895 19.6336C11.7895 19.5186 11.7333 19.3626 11.7333 19.1999V17.3599H10.6667V19.1999C10.6667 19.3626 10.6105 19.5186 10.5105 19.6336C10.4104 19.7486 10.2748 19.8133 10.1333 19.8133H0.533333C0.391885 19.8133 0.256229 19.7486 0.15621 19.6336C0.0561903 19.5186 0 19.3626 0 19.1999V12.4533C8.49565e-05 12.3246 0.035358 12.1992 0.100827 12.0949C0.166295 11.9905 0.258643 11.9125 0.3648 11.8718L6.4 9.55833V5.70659C6.4 5.59278 6.42754 5.48122 6.47953 5.38439C6.53153 5.28755 6.60592 5.20926 6.6944 5.15827L15.2277 0.251606C15.3091 0.204755 15.3996 0.182638 15.4905 0.187362C15.5814 0.192086 15.6698 0.223492 15.7472 0.278593ZM6.4 10.8512L1.06667 12.8949V18.5866H6.4V10.8512ZM7.46667 18.5866H9.6V16.7466C9.6 16.5839 9.65619 16.4279 9.75621 16.3129C9.85623 16.1979 9.99189 16.1333 10.1333 16.1333H12.2667C12.4081 16.1333 12.5438 16.1979 12.6438 16.3129C12.7438 16.4279 12.8 16.5839 12.8 16.7466V18.5866H14.9333V1.7923L7.46667 6.08563V18.5866Z" fill="#6B729D"/>
<path d="M2.13354 13.6801H3.20021V14.9067H2.13354V13.6801ZM4.26688 13.6801H5.33355V14.9067H4.26688V13.6801ZM2.13354 16.1334H3.20021V17.3601H2.13354V16.1334ZM4.26688 16.1334H5.33355V17.3601H4.26688V16.1334ZM8.53355 11.2267H9.60021V12.4534H8.53355V11.2267ZM10.6669 11.2267H11.7335V12.4534H10.6669V11.2267ZM8.53355 13.6801H9.60021V14.9067H8.53355V13.6801ZM10.6669 13.6801H11.7335V14.9067H10.6669V13.6801ZM12.8002 11.2267H13.8669V12.4534H12.8002V11.2267ZM12.8002 13.6801H13.8669V14.9067H12.8002V13.6801ZM8.53355 8.7734H9.60021V10.0001H8.53355V8.7734ZM10.6669 8.7734H11.7335V10.0001H10.6669V8.7734ZM12.8002 8.7734H13.8669V10.0001H12.8002V8.7734ZM8.53355 6.32006H9.60021V7.54673H8.53355V6.32006ZM10.6669 6.32006H11.7335V7.54673H10.6669V6.32006ZM12.8002 6.32006H13.8669V7.54673H12.8002V6.32006ZM12.8002 3.86673H13.8669V5.0934H12.8002V3.86673Z" fill="#6B729D"/>
</svg>
