<svg width="20" height="15" viewBox="0 0 20 15" fill="none" xmlns="http://www.w3.org/2000/svg">
<path d="M2.66667 14V14.6667H4V14H2.66667ZM9.33333 14V14.6667H10.6667V14H9.33333ZM4 14V13.3332H2.66667V14H4ZM9.33333 13.3329V14H10.6667V13.3329H9.33333ZM6.66667 10.6667C8.13955 10.6667 9.33333 11.8603 9.33333 13.3329H10.6667C10.6667 11.1236 8.87569 9.33333 6.66667 9.33333V10.6667ZM4 13.3332C4 11.8604 5.19387 10.6667 6.66667 10.6667V9.33333C4.45757 9.33333 2.66667 11.124 2.66667 13.3332H4ZM6.66667 2.66667C5.19391 2.66667 4 3.86057 4 5.33333H5.33333C5.33333 4.59696 5.93029 4 6.66667 4V2.66667ZM9.33333 5.33333C9.33333 3.86057 8.13943 2.66667 6.66667 2.66667V4C7.40304 4 8 4.59696 8 5.33333H9.33333ZM6.66667 8C8.13943 8 9.33333 6.80609 9.33333 5.33333H8C8 6.06971 7.40304 6.66667 6.66667 6.66667V8ZM6.66667 6.66667C5.93029 6.66667 5.33333 6.06971 5.33333 5.33333H4C4 6.80609 5.19391 8 6.66667 8V6.66667ZM2 1.33333H18V0H2V1.33333ZM18.6667 2V12.6667H20V2H18.6667ZM18 13.3333H2V14.6667H18V13.3333ZM1.33333 12.6667V2H0V12.6667H1.33333ZM2 13.3333C1.63181 13.3333 1.33333 13.0348 1.33333 12.6667H0C0 13.7712 0.895432 14.6667 2 14.6667V13.3333ZM18.6667 12.6667C18.6667 13.0348 18.3681 13.3333 18 13.3333V14.6667C19.1045 14.6667 20 13.7712 20 12.6667H18.6667ZM18 1.33333C18.3681 1.33333 18.6667 1.63181 18.6667 2H20C20 0.895427 19.1045 0 18 0V1.33333ZM2 0C0.895431 0 0 0.895427 0 2H1.33333C1.33333 1.63181 1.63181 1.33333 2 1.33333V0ZM12 5.33333H16V4H12V5.33333ZM12 9.33333H16V8H12V9.33333Z" fill="#6B729D"/>
</svg>
