<svg width="15" height="16" viewBox="0 0 15 16" fill="none" xmlns="http://www.w3.org/2000/svg">
<path d="M6.198 8.65434C6.47901 9.03002 6.83753 9.34087 7.24924 9.56581C7.66095 9.79074 8.11622 9.92451 8.58417 9.95802C9.05212 9.99153 9.52181 9.92402 9.96137 9.76005C10.4009 9.59608 10.8001 9.33949 11.1318 9.00769L13.0948 7.04465C13.6908 6.42759 14.0206 5.60114 14.0131 4.74331C14.0057 3.88547 13.6616 3.06488 13.055 2.45827C12.4484 1.85166 11.6278 1.50758 10.7699 1.50012C9.91209 1.49267 9.08564 1.82244 8.46858 2.41841L7.34311 3.53735" stroke="#6B729D" stroke-width="1.5" stroke-linecap="round" stroke-linejoin="round"/>
<path d="M8.81523 7.3457C8.53422 6.97002 8.1757 6.65917 7.76399 6.43423C7.35228 6.20929 6.89701 6.07553 6.42906 6.04202C5.96111 6.00851 5.49142 6.07602 5.05186 6.23999C4.61229 6.40396 4.21313 6.66055 3.88146 6.99235L1.91841 8.95539C1.32244 9.57245 0.992669 10.3989 1.00012 11.2567C1.00758 12.1146 1.35166 12.9352 1.95827 13.5418C2.56488 14.1484 3.38547 14.4925 4.24331 14.4999C5.10114 14.5074 5.92759 14.1776 6.54465 13.5816L7.66358 12.4627" stroke="#6B729D" stroke-width="1.5" stroke-linecap="round" stroke-linejoin="round"/>
</svg>
